# xmcd
#
# Track frame offsets: 
#        150
#        16240
#        29550
#        45467
#        59417
#        74382
#        88990
#        103965
#        116787
#        130820
#        146347
#        164295
#
# Disc length: 2367 seconds
#
# Revision: 3
# Processed by: cddbd v1.5.2PL0 Copyright (c) Steve Scherf et al.
# Submitted via: ExactAudioCopy v0.99pb5
#
DISCID=ac093d0c
DTITLE=Stefanie Hertel - Hast Du Zeit für ein Paar Träume
DYEAR=1996
DGENRE=Schlager
TTITLE0=Hast Du Zeit für ein Paar Träume
TTITLE1=Alles geht, wenn man es Wirklich will
TTITLE2=Ich hab ein Handy in meinem Herzen
TTITLE3=Noch dreimal wird der Kirschbaum blüh'n
TTITLE4=Goldene Hände
TTITLE5=Immer wieder Sehnsucht
TTITLE6=Ein kleines Blatt am Baum des Lebens
TTITLE7=Mit einem Koffer voller Sonnenschein
TTITLE8=Ein Geschenk des Himmels
TTITLE9=Mach ein Fest aus Deinem Leben
TTITLE10=Expresso Italiano
TTITLE11=Ich bin immer da, wo die Musi spielt
EXTD=
EXTT0=
EXTT1=
EXTT2=
EXTT3=
EXTT4=
EXTT5=
EXTT6=
EXTT7=
EXTT8=
EXTT9=
EXTT10=
EXTT11=
PLAYORDER=
